<?xml version="1.0" encoding="UTF-8" standalone="no"?>
<?xml-stylesheet type="text/css" href="/stylesheets/style.css"?>
<!-- Created with Inkscape (http://www.inkscape.org/) -->

<svg
   xmlns:dc="http://purl.org/dc/elements/1.1/"
   xmlns:cc="http://creativecommons.org/ns#"
   xmlns:rdf="http://www.w3.org/1999/02/22-rdf-syntax-ns#"
   xmlns:svg="http://www.w3.org/2000/svg"
   xmlns="http://www.w3.org/2000/svg"
   xmlns:sodipodi="http://sodipodi.sourceforge.net/DTD/sodipodi-0.dtd"
   xmlns:inkscape="http://www.inkscape.org/namespaces/inkscape"
   id="svg3107"
   version="1.1"
   inkscape:version="0.48.4 r9939"
   width="43.5"
   height="61.5"
   sodipodi:docname="torp(fake).svg">
  <metadata
     id="metadata3113">
    <rdf:RDF>
      <cc:Work
         rdf:about="">
        <dc:format>image/svg+xml</dc:format>
        <dc:type
           rdf:resource="http://purl.org/dc/dcmitype/StillImage" />
        <dc:title></dc:title>
      </cc:Work>
    </rdf:RDF>
  </metadata>
  <defs
     id="defs3111" />
  <sodipodi:namedview
     pagecolor="#ffffff"
     bordercolor="#666666"
     borderopacity="1"
     objecttolerance="10"
     gridtolerance="10"
     guidetolerance="10"
     inkscape:pageopacity="0"
     inkscape:pageshadow="2"
     inkscape:window-width="1920"
     inkscape:window-height="1053"
     id="namedview3109"
     showgrid="false"
     inkscape:zoom="14.566667"
     inkscape:cx="21"
     inkscape:cy="55.44163"
     inkscape:window-x="0"
     inkscape:window-y="0"
     inkscape:window-maximized="1"
     inkscape:current-layer="svg3107" />
  <path
     style="stroke-width:0.18441272;stroke-linecap:round;stroke-linejoin:round;stroke-miterlimit:4;stroke-opacity:1;stroke-dasharray:none"
     d="m 21.591261,58.862304 c -0.36683,-3.2912 -0.79835,-8.66043 -0.79835,-9.9332 0,-0.78998 -0.0639,-1.12331 -0.19253,-1.00377 -0.19818,0.18431 -0.55808,4.99515 -0.58646,7.84137 l -0.0152,1.60763 -0.82699,-1.62735 c -0.45486,-0.89505 -1.19484,-2.14098 -1.64444,-2.76872 -0.9389,-1.31092 -0.99181,-0.74744 0.48089,-5.12035 0.50543,-1.50074 0.85172,-2.78687 0.76954,-2.85804 -0.0821,-0.0711 -0.18754,-0.0305 -0.23393,0.0903 -0.0465,0.12086 -0.47246,0.9611 -0.94666,1.86718 -0.9465,1.80859 -1.11063,1.83422 -1.32919,0.20741 -0.11474,-0.85465 -0.0446,-1.08934 0.93679,-3.12751 1.20183,-2.49623 1.86026,-4.2188 1.86026,-4.86683 0,-0.51085 -1.00087,-1.2801 -4.27102,-3.28266 -2.06431,-1.26411 -2.76515,-1.59207 -2.97839,-1.39375 -0.21621,0.20108 0.37756,0.95529 2.12111,2.69443 1.92507,1.92018 1.87919,1.96899 -0.72983,0.77664 -2.01657,-0.92161 -4.5901304,-2.64619 -6.3900004,-4.28205 -1.30623,-1.18718 -2.92541,-2.97807 -2.92541,-3.23561 0,-0.0552 0.54019,0.0461 1.20044,0.22493 0.66023,0.17885 1.84868,0.41502 2.64097,0.52465 0.79228,0.10974 1.72142,0.24043 2.0647403,0.29063 1.2572301,0.1837 0.5744401,-0.26795 -1.2484503,-0.82605 -4.08142,-1.24959 -5.64208,-2.17382 -6.38585,-3.78171 -0.8356301,-1.80655 -1.61034002,-6.80023 -1.20805005,-7.78713 0.15515995,-0.38043 0.24513995,-0.30282 1.15308005,0.99359 0.54167,0.77341 1.55517,1.90238 2.25223,2.5088 1.26939,1.10436 2.41195,1.80518 2.41195,1.47948 0,-0.0954 -0.54734,-0.76068 -1.21629,-1.47827 -1.50325,-1.6125 -2.19608,-2.57759 -2.92424,-4.07339 -0.52535,-1.07923 -0.56505,-1.31217 -0.56314,-3.3046 0.002,-1.79045 0.0776,-2.34802 0.46062,-3.38504 0.85641,-2.3186401 2.13028,-4.6304203 2.13028,-3.8660203 0,0.88702 0.69728,4.4795103 1.07109,5.5183903 0.43999,1.22283 1.00993,2.26832 1.16028,2.12847 0.0367,-0.034 -0.0702,-0.7801 -0.2374,-1.65787 -0.35207,-1.84849 -0.28308,-6.9411703 0.10626,-7.8478803 0.41588,-0.96837 1.73734,-2.0186703 4.3340804,-3.4447603 1.02345,-0.56206 3.94406,-1.82474002 4.22069,-1.82474002 0.0217,0 -0.72896,0.72248002 -1.66677,1.60553002 -1.85499,1.74663 -2.87487,3.3856003 -3.55825,5.7181603 -0.5096804,1.7396803 -0.4505704,5.1153203 0.12821,7.3237103 l 0.44475,1.69696 -0.43128,1.25037 c -0.5963804,1.72913 -0.7378504,4.59091 -0.3046501,6.16347 0.3674101,1.33374 1.3479201,3.0792 2.3754601,4.22862 0.67694,0.75724 3.26273,2.73699 3.57485,2.73699 0.0808,0 -0.47648,-0.62297 -1.23828,-1.38436 -1.68503,-1.68412 -2.9589,-3.45642 -3.46885,-4.82612 -0.44668,-1.19977 -0.79485,-3.46808 -0.6275,-4.08821 0.0997,-0.3694 0.21056,-0.23248 0.75506,0.93234 1.06832,2.28553 1.82795,3.30806 3.78409,5.09388 1.70962,1.56078 1.90035,1.80289 2.16518,2.74846 0.32539,1.16186 1.19327,3.28143 1.48339,3.62287 0.36214,0.42615 0.51336,0.21418 1.08306,-1.51833 0.74048,-2.25186 1.35312,-4.51033 1.2235,-4.51033 -0.35386,0 -1.44617,0.83717 -1.81804,1.39337 -0.40138,0.60032 -0.44747,0.62392 -0.50338,0.25779 -0.0832,-0.54468 0.72522,-2.14071 1.49982,-2.96117 0.7339,-0.77737 1.76415,-1.36963 3.31649,-1.90657 0.79151,-0.27375 1.25217,-0.56885 1.62201,-1.039 0.83128,-1.05674 0.8849,-1.07534 0.7532,-0.26118 -0.0669,0.41398 -0.47426,1.49914 -0.90511,2.41145 l -0.78338,1.65874 0.12495,2.41148 c 0.13799,2.66237 0.29199,3.60241 0.60599,3.69974 0.26353,0.0816 0.94055,-1.36981 1.37149,-2.9403 0.31174,-1.13616 0.4366,-1.30722 2.15557,-2.95298 2.05019,-1.96287 3.00612,-3.21393 3.77153,-4.93588 0.78346,-1.76262 0.9028,-1.74875 0.77103,0.0895 -0.20622,2.87828 -0.95989,4.41544 -3.48449,7.1075 -0.71175,0.759 -1.25481,1.41655 -1.20677,1.46123 0.1343,0.1249 1.48718,-0.8362 2.4896,-1.76888 1.11109,-1.03379 2.0944,-2.51887 2.67969,-4.04705 0.64036,-1.67204 0.63517,-4.47479 -0.0131,-6.6699 l -0.46581,-1.57902 0.41253,-1.63627 c 0.56829,-2.2541 0.6951,-3.88647 0.43249,-5.5673 -0.49736,-3.1832103 -1.71106,-5.4619506 -4.0666,-7.6350306 -0.82531,-0.76139 -1.46401,-1.38436002 -1.41931,-1.38436002 0.0448,0 0.85172,0.31530002 1.79338,0.70069002 2.85827,1.16976 5.91328,3.1244 6.48205,4.1473203 0.6295,1.1321 0.71423,6.0465803 0.16276,9.4421303 l -0.10148,0.6252 0.47787,-0.69846 c 0.59808,-0.87419 1.18795,-2.88225 1.54845,-5.27139 0.15277,-1.0118403 0.32007,-1.8792103 0.37196,-1.9274703 0.16254,-0.15116 1.25636,2.0290203 1.88101,3.7491603 0.49169,1.35394 0.60191,1.94965 0.61882,3.34433 0.0378,3.12024 -1.0609,5.31731 -4.17586,8.35081 -0.63053,0.61402 -1.03239,1.11641 -0.89299,1.11641 0.13951,0 0.89181,-0.44685 1.67206,-0.99301 1.41653,-0.99155 2.76748,-2.42736 3.74015,-3.97511 l 0.51492,-0.81933 0.13907,0.51566 c 0.17862,0.66158 -0.20622,4.70993 -0.6013,6.32491 -0.61838,2.52853 -1.72658,3.41147 -6.18571,4.92843 -3.75684,1.27803 -3.41674,1.40808 1.38622,0.53007 1.26422,-0.23112 2.33482,-0.38649 2.37913,-0.34528 0.0443,0.0412 -0.40227,0.63069 -0.9924,1.30997 -2.04738,2.35665 -5.54901,4.96644 -8.29498,6.18233 -2.3744,1.05135 -2.45482,0.99917 -0.85124,-0.55226 1.68494,-1.63014 2.83545,-3.10328 2.42362,-3.10328 -0.61277,0 -4.11562,1.99797 -6.23009,3.55352 -0.73641,0.54177 -1.00837,0.86266 -1.00837,1.18989 0,0.68554 0.68783,2.4468 1.87811,4.80906 1.11132,2.20559 1.17182,2.50925 0.76203,3.82557 l -0.24133,0.77525 -0.95933,-1.58387 c -1.28156,-2.11595 -1.30947,-1.58518 -0.0997,1.89935 l 0.96115,2.76872 -1.38215,2.72405 c -0.76019,1.49824 -1.45074,2.72406 -1.53455,2.72406 -0.0839,0 -0.15233,-0.5502 -0.15233,-1.22267 0,-1.72181 -0.38621,-6.71228 -0.56525,-7.30417 -0.13081,-0.43221 -0.16471,-0.37126 -0.27191,0.48864 -0.0674,0.54034 -0.30298,3.31292 -0.52352,6.1613 -0.22057,2.84836 -0.46571,5.28635 -0.54476,5.41775 -0.0791,0.13136 -0.24527,-0.67184 -0.36933,-1.78495 z"
     id="path3942"
     class="icon-torpchat-logo"
     inkscape:connector-curvature="0" />
</svg>
